<?xml version="1.0" encoding="utf-8" ?><svg xmlns="http://www.w3.org/2000/svg" xmlns:xlink="http://www.w3.org/1999/xlink" width="1024" height="1024" viewBox="0 0 1024 1024"><path fill="#1A3A5C" d="M522.441 408.393C522.427 413.182 521.512 426.182 525.257 429.398C531.884 434.89 540.078 438.881 547.473 443.329C559.288 450.436 571.055 457.7 583.328 463.976C587.567 466.144 588.852 466.15 593.24 464.516L594.13 464.189C594.307 464.12 594.484 464.052 594.661 463.984C595.678 466.768 597.408 469.049 599.325 471.3C596.023 472.902 593.751 474.779 591.121 477.331C589.997 498.427 591.265 521.948 590.733 543.363C594.057 547.359 595.332 548.256 599.935 550.646C597.861 553.054 595.39 555.898 594.322 558.917C592.549 558.272 590.386 557.414 588.595 556.933C579.501 559.755 567.475 568.169 558.222 573.5C549.266 578.66 532.382 586.931 525.498 594.379C523.199 596.866 523.684 609.103 523.615 613.112C523.085 612.844 522.547 612.593 522.002 612.359C515.382 609.545 509.643 609.781 503.062 612.345C502.949 609.041 502.916 596.73 501.143 595.021C491.582 585.802 473.155 577.362 462.151 570.302C453.614 564.826 443.594 558.63 434.989 556.748C432.552 557.443 431.696 557.538 429.639 558.907C428.244 556.311 426.372 554.046 424.582 551.692C428.609 549.863 430.386 549.042 433.548 546.081C434.184 540.44 433.896 527.841 433.899 521.856L433.869 477.4C430.715 474.464 429.401 473.715 425.739 471.67C427.563 469.197 428.695 467.467 430.286 464.846C431.864 465.48 433.614 466.01 435.329 466.016C440.995 466.033 484.926 439.367 491.421 435.015C493.685 433.498 496.044 431.758 497.87 429.725C502.922 424.103 502.354 415.965 502.028 408.971C508.147 411.141 516.41 410.924 522.441 408.393ZM489.836 548.049L490.016 553.431C497.044 557.415 504.954 562.044 512.235 565.529C518.652 562.754 530.21 556.938 535.984 553.044L535.922 547.677C544.035 546.137 555.565 543.057 562.859 539.15C563.073 521.313 563.085 503.475 562.895 485.638C562.695 484.592 562.796 483.792 562.108 483.471C556.309 480.764 541.862 477.079 535.893 476.176C535.306 480.882 535.447 484.789 535.534 489.509C540.119 493.871 545.666 504.676 548.785 510.752C546.89 515.57 538.801 529.267 535.419 533.241C535.394 537.941 535.414 542.64 535.48 547.339C527.71 544.26 520.607 540.675 513.061 537.519C503.561 540.91 498.293 544.043 490.041 547.411L490.014 532.245C486.7 529.601 478.453 515.571 476.113 511.388C480.894 503.786 484.722 495.936 490.878 489.641C490.996 485.346 491.094 480.45 489.974 476.274C497.188 479.002 504.274 483.071 511.608 485.709L512.508 486.053C519.998 483.371 528.866 479.145 536.032 475.498C536.104 472.019 537.321 469.575 534.791 467.466C529.64 464.655 518.014 458.921 512.626 456.424C506.687 458.935 494.55 464.766 489.443 468.228C489.511 471.194 489.675 473.318 489.974 476.274C484.125 475.244 467.51 481.082 461.993 483.469C461.717 490.565 461.22 535.35 463.108 538.841C466.994 541.638 484.69 547.055 489.836 548.049Z"/><path fill="#1A3A5C" d="M602.882 428.894C611.774 422.306 619.968 422.99 630.337 424C631.577 425.483 637.078 428.364 638.995 429.37L643.386 433.612C645.712 437.264 646.519 438.262 648.341 442.39C648.606 444.867 648.646 449.39 649.586 451.51C648.789 453.97 649.027 454.683 648.811 457.312C646.511 467.096 642.768 470.803 635.017 476.63L635.199 476.99C638.57 477.743 644.446 482.707 647.691 484.636C664.22 494.466 681.13 505.678 700.481 508.616C700.249 510.891 700.321 513.186 700.694 515.442C687.48 516.98 679.188 516.655 666.914 523.223C659.272 527.389 652.1 532.367 645.524 538.07C643.067 540.209 640.726 542.527 638.334 544.74C637.265 545.729 636.725 545.412 635.377 545.295C636.146 547.09 642.437 551.414 644.268 554.087C648.074 559.642 648.009 562.532 649.755 568.075C650.357 564.611 649.969 563.53 653.151 561.289C657.326 558.35 661.984 555.909 666.361 553.268C674.302 548.475 687.893 538.309 697.595 539.763C703.337 540.624 743.807 566.679 747.237 571.255C748.647 576.614 748.223 635.345 747.451 643.083C746.582 644.209 745.285 645.903 744.059 646.614C728.951 655.376 713.761 664.016 698.656 672.79C694.44 675.239 688.907 678.732 684.429 680.423C674.863 675.232 665.421 669.587 655.978 664.174C649.011 660.179 640.816 656.685 634.953 651.192C629.785 646.351 626.154 637.311 625.859 630.265C625.441 620.263 625.503 610.148 625.446 600.131L625.574 599.261C622.553 598.603 616.185 599.016 612.755 597.979C610.096 597.175 607.16 595.295 604.491 594.233L603.686 593.917C603.517 593.663 594.753 584.056 594.912 584.155L594.978 583.058C591.739 573.619 592.077 568.432 594.322 558.917C595.39 555.898 597.861 553.054 599.935 550.646C606.564 544.489 613.069 542.614 621.928 541.871L621.673 506.298C621.663 497.894 621.931 488.302 621.504 479.997C611.354 478.585 607.439 477.835 599.325 471.3C597.408 469.049 595.678 466.768 594.661 463.984C591.73 453.989 591.527 450.108 594.133 440.032L595.125 438.135C595.759 437.071 596.432 436.053 597.087 435.003L599.566 432.128C600.625 431.086 601.91 429.949 602.882 428.894ZM649.89 576.43L649.592 578.061L650.131 578.12C658.184 587.001 673.247 592.322 684.939 593.845C701.743 596.034 716.866 591.995 730.236 581.552C725.639 579.182 720.304 576.654 715.47 574.891C696.446 567.956 668.893 567.276 650.365 575.856L649.89 576.43ZM638.757 594.599L640.056 594.634C641.227 597.761 642.181 601.499 643.055 604.781C648.2 624.112 665.367 645.479 682.889 655.152C686.863 634.323 674.73 606.854 657.842 594.777C655.009 592.751 649.325 590.295 645.881 588.243C645.788 587.039 645.81 587.346 646.028 586.132C644.081 586.99 639.547 592.118 637.787 593.965L638.757 594.599Z"/><path fill="#008B8B" d="M602.882 428.894C611.774 422.306 619.968 422.99 630.337 424C631.577 425.483 637.078 428.364 638.995 429.37L643.386 433.612C645.712 437.264 646.519 438.262 648.341 442.39C648.606 444.867 648.646 449.39 649.586 451.51C648.789 453.97 649.027 454.683 648.811 457.312C646.511 467.096 642.768 470.803 635.017 476.63L635.199 476.99C638.57 477.743 644.446 482.707 647.691 484.636C664.22 494.466 681.13 505.678 700.481 508.616C700.249 510.891 700.321 513.186 700.694 515.442C687.48 516.98 679.188 516.655 666.914 523.223C659.272 527.389 652.1 532.367 645.524 538.07C643.067 540.209 640.726 542.527 638.334 544.74C637.265 545.729 636.725 545.412 635.377 545.295C636.146 547.09 642.437 551.414 644.268 554.087C648.074 559.642 648.009 562.532 649.755 568.075L649.364 568.595C649.713 569.073 649.672 569.103 650.212 569.045C651.25 569.516 650.633 573.025 650.554 573.77C650.485 574.465 650.422 575.16 650.365 575.856L649.89 576.43L649.592 578.061C649.744 580.801 648.615 583.284 647.186 585.563L646.028 586.132C644.081 586.99 639.547 592.118 637.787 593.965C637.396 594.131 625.011 599.713 625.574 599.261C622.553 598.603 616.185 599.016 612.755 597.979C610.096 597.175 607.16 595.295 604.491 594.233L603.686 593.917C603.517 593.663 594.753 584.056 594.912 584.155L594.978 583.058C591.739 573.619 592.077 568.432 594.322 558.917C595.39 555.898 597.861 553.054 599.935 550.646C606.564 544.489 613.069 542.614 621.928 541.871L621.673 506.298C621.663 497.894 621.931 488.302 621.504 479.997C611.354 478.585 607.439 477.835 599.325 471.3C597.408 469.049 595.678 466.768 594.661 463.984C591.73 453.989 591.527 450.108 594.133 440.032L595.125 438.135C595.759 437.071 596.432 436.053 597.087 435.003L599.566 432.128C600.625 431.086 601.91 429.949 602.882 428.894Z"/><path fill="white" d="M635.199 476.99C633.157 479.286 623.395 482.261 621.918 480.604L621.979 480.25C621.205 480.846 634.417 476.803 635.017 476.63L635.199 476.99Z"/><path fill="white" d="M649.364 568.595C649.713 569.073 649.672 569.103 650.212 569.045C651.25 569.516 650.633 573.025 650.554 573.77C650.485 574.465 650.422 575.16 650.365 575.856L649.89 576.43C648.142 574.524 648.816 571 649.364 568.595Z"/><path fill="white" d="M623.08 541.154C626.778 540.813 632.565 542.799 635.002 545.516C633.877 545.271 624.102 542.088 623.595 541.613L623.08 541.154Z"/><path fill="white" d="M625.574 599.261C625.011 599.713 637.396 594.131 637.787 593.965L638.757 594.599C635.071 597.97 630.179 599.147 625.446 600.131L625.574 599.261Z"/><path fill="#1A3A5C" d="M389.147 477.551C390.981 478.431 392.534 478.966 394.362 479.748C395.926 480.686 398.355 481.28 400.188 481.384L402.461 481.726C402.952 501.834 402.065 522.084 402.499 541.971C411.973 543.052 417.477 544.772 424.582 551.692C426.372 554.046 428.244 556.311 429.639 558.907C432.631 568.06 432.979 573.907 429.203 583.041C426.369 588.539 426.62 588.368 422.009 592.607C412.779 598.603 408.464 598.775 397.478 598.448L395.513 598.325C394.356 597.555 392.272 596.743 390.96 596.345L389.965 597.666C392.241 598.49 393.446 599.126 395.889 599.597L396.162 599.651C396.704 599.795 397.307 599.929 397.822 600.136L398.569 601.001C399.075 604.959 398.839 609.237 398.741 613.22C398.372 628.157 401.099 643.667 386.442 652.895C371.882 662.185 356.582 670.617 341.48 678.986C337.591 681.142 329.919 675.101 326.177 672.93C317.856 668.108 309.566 663.231 301.31 658.298C294.306 654.176 287.206 650.268 280.195 646.176C275.786 643.603 276.431 637.617 276.451 633.263C276.539 614.134 276.284 595.045 276.703 575.917C276.184 573.06 279.526 568.654 282.316 567.416C293.502 562.452 319.908 541.523 330.206 540.398C332.973 540.095 335.773 540.445 338.38 541.422C343.949 543.446 369.108 559.51 374.142 563.719L374.658 564.743C376.79 561.709 377.936 555.747 381.119 552.592C382.87 550.856 387.764 547.331 388.453 545.63C372.38 529.628 354.934 520.014 333.187 513.834C329.845 512.884 326.5 511.913 323.036 511.557C323.198 509.028 322.982 506.488 322.395 504.023C348.619 501.873 368.71 494.579 389.147 477.551ZM375.28 579.654C375.612 581.718 375.927 582.119 376.463 584.06C377.109 585.649 377.325 586.174 378.4 587.519L378.9 588.985C375.239 591.465 371.164 593.07 367.464 595.819C350.219 608.628 340.381 634.388 342.49 655.598C361.819 644.771 374.402 624.849 381.097 604.052C381.926 601.477 382.515 595.753 384.512 594.193L385.211 594.131L386.147 593.726C383.569 590.935 381.611 588.651 379.231 585.688C378.928 584.697 378.952 584.713 378.314 583.892C377.644 582.447 376.915 580.812 376.364 579.329L375.06 576.64L374.496 576.634C370.53 576.69 363.134 573.205 358.639 572.425C338.483 568.926 312.163 570.186 294.569 581.443C303.808 590.578 321.91 594.617 334.508 594.497C345.802 594.452 356.848 591.184 366.349 585.078C368.668 583.561 372.925 580.184 375.28 579.654Z"/><path fill="#F5FAFD" fill-opacity="0.035294119" d="M376.364 579.329C376.915 580.812 377.644 582.447 378.314 583.892L376.463 584.06C375.927 582.119 375.612 581.718 375.28 579.654L376.364 579.329Z"/><path fill="white" fill-opacity="0.58431375" d="M378.314 583.892C378.952 584.713 378.928 584.697 379.231 585.688C378.946 586.295 378.669 586.905 378.4 587.519C377.325 586.174 377.109 585.649 376.463 584.06L378.314 583.892Z"/><path fill="#008B8B" d="M389.147 477.551C390.981 478.431 392.534 478.966 394.362 479.748C395.926 480.686 398.355 481.28 400.188 481.384L402.461 481.726C402.952 501.834 402.065 522.084 402.499 541.971C411.973 543.052 417.477 544.772 424.582 551.692C426.372 554.046 428.244 556.311 429.639 558.907C432.631 568.06 432.979 573.907 429.203 583.041C426.369 588.539 426.62 588.368 422.009 592.607C412.779 598.603 408.464 598.775 397.478 598.448L395.513 598.325C394.356 597.555 392.272 596.743 390.96 596.345C389.267 595.484 387.772 594.434 386.147 593.726C383.569 590.935 381.611 588.651 379.231 585.688C378.928 584.697 378.952 584.713 378.314 583.892C377.644 582.447 376.915 580.812 376.364 579.329L375.06 576.64C375.225 575.812 374.851 565.31 374.658 564.743C376.79 561.709 377.936 555.747 381.119 552.592C382.87 550.856 387.764 547.331 388.453 545.63C372.38 529.628 354.934 520.014 333.187 513.834C329.845 512.884 326.5 511.913 323.036 511.557C323.198 509.028 322.982 506.488 322.395 504.023C348.619 501.873 368.71 494.579 389.147 477.551Z"/><path fill="white" d="M388.453 545.63L388.934 545.034C390.306 543.25 399.266 539.69 401.86 541.854C400.984 542.18 388.321 545.592 388.453 545.63Z"/><path fill="#F5FAFD" d="M374.142 563.719L374.658 564.743C374.851 565.31 375.225 575.812 375.06 576.64L374.496 576.634C373.008 572.671 373.239 567.799 374.142 563.719Z"/><path fill="white" d="M386.147 593.726C387.772 594.434 389.267 595.484 390.96 596.345L389.965 597.666C387.798 596.476 386.59 596.049 385.211 594.131L386.147 593.726Z"/><path fill="#1A3A5C" d="M339.935 342.512C342.044 343.331 344.493 344.684 346.514 345.781C360.444 353.317 377.221 360.768 389.766 370.227C401.715 379.236 397.441 408.338 398.604 422.816C408.809 423.451 412.427 423.316 421.415 429.062C422.262 429.757 423.091 430.404 423.927 431.116C425.03 432.281 425.969 433.259 426.998 434.5C427.778 435.823 428.526 436.928 429.41 438.179C429.683 438.667 429.95 439.157 430.213 439.651C433.764 448.016 432.922 456.398 430.286 464.846C428.695 467.467 427.563 469.197 425.739 471.67C419.455 476.288 414.304 479.389 406.359 480.185C400.806 480.16 400.003 479.685 394.825 478.725L393.698 478.296C392.706 477.914 391.724 477.522 390.745 477.108C382.068 471.332 378.175 466.194 375.123 456.373C375.62 454.684 375.449 450.818 375.428 448.863L373.757 448.182C373.183 451.447 373.575 454.783 374.362 457.976C373.238 459.801 343.121 476.291 338.888 478.637C334.398 481.123 321.816 480.793 317.576 477.378C308.819 470.326 283.087 457.884 276.579 450.215C276.289 442.494 275.611 382.395 277.348 379.297C278.239 377.707 280.489 376.268 282.003 375.285C290.924 369.49 300.641 364.462 309.846 359.1C318.219 354.222 331.223 345.248 339.935 342.512ZM379.962 433.249L380.708 434.34C382.739 432.658 383.986 431.63 384.668 429.114L384.445 428.6C380.937 404.858 363.704 376.769 341.711 366.157C338.745 419.02 379.377 430.525 380.049 433.035L379.962 433.249ZM375.199 441.812C359.995 429.613 346.385 423.843 326.217 425.634C316.913 426.461 303.62 432.326 297.07 439.017C311.342 447.779 349.199 452.719 365.785 447.416C368.568 446.526 371.39 445.811 374.235 444.853C374.548 443.837 374.869 442.823 375.199 441.812ZM376.165 439.187L377.146 441.039C377.612 440.024 378.031 439.132 378.455 438.097L376.693 437.513C376.43 438.224 376.347 438.467 376.165 439.187Z"/><path fill="white" fill-opacity="0.70588237" d="M376.693 437.513L378.455 438.097C378.031 439.132 377.612 440.024 377.146 441.039L376.165 439.187C376.347 438.467 376.43 438.224 376.693 437.513Z"/><path fill="#008B8B" d="M398.604 422.816C408.809 423.451 412.427 423.316 421.415 429.062C422.262 429.757 423.091 430.404 423.927 431.116C425.03 432.281 425.969 433.259 426.998 434.5C427.778 435.823 428.526 436.928 429.41 438.179C429.683 438.667 429.95 439.157 430.213 439.651C433.764 448.016 432.922 456.398 430.286 464.846C428.695 467.467 427.563 469.197 425.739 471.67C419.455 476.288 414.304 479.389 406.359 480.185C400.806 480.16 400.003 479.685 394.825 478.725L393.698 478.296C392.706 477.914 391.724 477.522 390.745 477.108C382.068 471.332 378.175 466.194 375.123 456.373C375.62 454.684 375.449 450.818 375.428 448.863L373.757 448.182L374.235 444.853C374.548 443.837 374.869 442.823 375.199 441.812C375.499 440.93 375.821 440.054 376.165 439.187L377.146 441.039C377.612 440.024 378.031 439.132 378.455 438.097C379.336 436.801 380.106 435.778 380.708 434.34C382.739 432.658 383.986 431.63 384.668 429.114C386.658 429.617 392.44 424.189 395.511 424.169C396.304 424.164 397.871 423.264 398.604 422.816Z"/><path fill="white" d="M376.165 439.187L377.146 441.039C376.023 443.689 375.623 445.986 375.428 448.863L373.757 448.182L374.235 444.853C374.548 443.837 374.869 442.823 375.199 441.812C375.499 440.93 375.821 440.054 376.165 439.187Z"/><path fill="white" d="M384.445 428.6C386.757 426.811 395.967 420.611 398.604 422.816C397.871 423.264 396.304 424.164 395.511 424.169C392.44 424.189 386.658 429.617 384.668 429.114L384.445 428.6Z"/><path fill="white" d="M376.693 437.513C378.029 435.354 378.084 434.968 379.962 433.249L380.708 434.34C380.106 435.778 379.336 436.801 378.455 438.097L376.693 437.513Z"/><path fill="#1A3A5C" d="M503.062 612.345C509.643 609.781 515.382 609.545 522.002 612.359C522.547 612.593 523.085 612.844 523.615 613.112C526.771 614.876 530.132 616.729 532.926 619.045C533.455 619.627 533.808 620.049 534.298 620.662C534.992 621.704 535.7 622.594 536.383 623.639C536.696 624.198 536.997 624.685 537.332 625.23C541.515 634.163 541.685 641.915 537.942 650.971C537.397 652.29 535.624 656.408 535.546 657.54C540.673 658.958 562.258 672.079 566.78 675.808C569.291 677.878 571.454 680.336 573.024 683.196C574.596 686.06 575.477 689.172 575.899 692.401C576.52 697.158 576.763 737.497 575.824 740.633C575.336 742.262 574.467 742.993 573.135 743.981C565.276 749.809 553.744 755.428 545.042 760.463C535.845 765.785 523.908 773.619 514.598 778.057C513.67 778.5 512.708 778.848 511.741 779.193C511.677 779.216 511.614 779.242 511.55 779.267C503.492 775.662 495.73 770.126 488.022 765.711C476.232 758.958 463.253 752.768 452.219 744.897C450.585 743.731 448.836 742.495 448.141 740.53C446.886 736.976 447.176 699.353 447.914 693.507C448.35 690.055 449.315 686.639 450.937 683.551C456.389 673.176 467.133 669.383 476.638 663.79C479.535 662.085 484.012 658.353 487.283 657.696C487.575 657.638 487.88 657.699 488.178 657.7C489.721 659.749 492.482 662.642 494.78 663.831L495.776 663.174C493.206 660.866 491.452 659.39 489.137 656.72C488.389 655.409 487.673 654.081 486.987 652.737C482.581 643.882 483.224 636.547 486.166 627.601C488.605 623.316 487.931 623.392 491.622 619.688C495.936 616.134 498.036 614.713 503.062 612.345ZM516.902 669.544C512.484 696.262 531.178 722.48 555.287 732.622C554.908 713.369 546.488 689.522 533.319 675.24C531.526 673.295 525.346 667.731 524.947 666.538L524.825 665.927C522.548 665.577 519.381 666.759 517.367 667.831L516.944 668.773L516.902 669.544ZM499.901 666.144L500.58 668.234C498.893 671.138 493.135 675.943 490.003 679.606C480.078 691.213 469.327 717.266 467.664 732.701C484.148 726.824 496.208 714.876 504.012 699.242C508.573 690.104 509.182 679.552 508.539 669.455L508.513 667.849C505.77 667.3 503.045 666.67 500.339 665.962L499.901 666.144Z"/><path fill="#008B8B" d="M503.062 612.345C509.643 609.781 515.382 609.545 522.002 612.359C522.547 612.593 523.085 612.844 523.615 613.112C526.771 614.876 530.132 616.729 532.926 619.045C533.455 619.627 533.808 620.049 534.298 620.662C534.992 621.704 535.7 622.594 536.383 623.639C536.696 624.198 536.997 624.685 537.332 625.23C541.515 634.163 541.685 641.915 537.942 650.971C537.397 652.29 535.624 656.408 535.546 657.54C534.501 657.781 525.503 664.933 524.825 665.927C522.548 665.577 519.381 666.759 517.367 667.831L516.944 668.773L516.902 669.544C514.114 669.581 511.325 669.552 508.539 669.455L508.513 667.849C505.77 667.3 503.045 666.67 500.339 665.962C499.149 665.079 497.121 663.724 495.776 663.174C493.206 660.866 491.452 659.39 489.137 656.72C488.389 655.409 487.673 654.081 486.987 652.737C482.581 643.882 483.224 636.547 486.166 627.601C488.605 623.316 487.931 623.392 491.622 619.688C495.936 616.134 498.036 614.713 503.062 612.345Z"/><path fill="white" d="M508.513 667.849C510.842 667.989 515.799 667.22 516.944 668.773L516.902 669.544C514.114 669.581 511.325 669.552 508.539 669.455L508.513 667.849Z"/><path fill="white" d="M524.825 665.927C525.503 664.933 534.501 657.781 535.546 657.54C536.238 660.22 527.163 665.593 524.947 666.538L524.825 665.927Z"/><path fill="white" d="M495.776 663.174C497.121 663.724 499.149 665.079 500.339 665.962L499.901 666.144C498.389 668.073 494.741 664.517 494.78 663.831L495.776 663.174Z"/><path fill="#1A3A5C" d="M448.468 281.986C449.6 280.672 450.723 279.425 452.172 278.453C457.717 274.733 508.474 245.115 511.933 244.765C514.344 244.521 570.942 276.896 574.7 280.591C577.272 286.664 575.023 310.565 575.818 318.45C576.776 327.957 575.072 341.218 567.321 347.299C561.36 352.442 553.895 355.633 547.166 359.686C544.317 361.401 539.65 364.271 536.631 365.317C535.856 364.209 535.256 363.554 534.38 362.537C533.409 361.148 532.222 360.134 530.843 359.156C528.771 357.717 526.72 356.223 524.599 354.845C526.212 352.759 531.284 349.053 534.004 345.532C547.603 327.928 553.936 311.934 556.78 290.243C532.305 298.917 513.517 326.317 516.058 352.479L515.802 353.118C517.386 354.923 520.779 355.302 523.411 356.19C526.281 357.329 526.872 357.694 529.401 359.553C531.696 361.318 531.972 361.823 534.022 363.761C534.211 364.052 534.399 364.343 534.588 364.634L535.707 366.007C540.157 373.878 541.948 381.406 539.42 390.344C538.915 392.079 538.35 393.796 537.724 395.491C537.084 396.267 537.122 396.359 536.654 397.374L536.574 397.542C535.366 398.769 534.648 399.856 533.683 401.291C529.904 404.52 526.365 405.71 522.441 408.393C516.41 410.924 508.147 411.141 502.028 408.971C498.584 407.605 496.144 405.902 493.029 403.918C492.052 403.028 491.159 402.116 490.175 401.24L489.821 400.884C489.063 399.335 487.878 397.147 486.527 396.04L486.45 395.609C485.946 394.292 485.473 392.964 485.029 391.626C481.96 382.142 484.155 374.144 488.49 365.658C489.7 364.604 490.484 363.703 491.556 362.534L490.492 361.606C489.189 362.777 488.454 363.616 487.398 365.003C483.624 363.948 462.1 350.865 458.78 348.074C456.294 345.997 454.203 343.49 452.606 340.672C450.695 337.261 449.428 333.528 448.87 329.659C448.038 323.967 448.351 312.368 448.305 306.048C448.253 298.883 447.88 288.811 448.468 281.986ZM500.132 354.934L500.735 355.785C502.352 355.864 507.223 354.847 508.602 353.725L508.579 352.947C507.356 350.687 507.618 340.876 507.035 337.429C503.441 316.172 488.599 297.185 467.992 290.216C470.52 310.183 482.616 343.414 500.132 354.934Z"/><path fill="#008B8B" d="M508.579 352.947C510.867 352.163 513.594 352.437 516.058 352.479L515.802 353.118C517.386 354.923 520.779 355.302 523.411 356.19C526.281 357.329 526.872 357.694 529.401 359.553C531.696 361.318 531.972 361.823 534.022 363.761C534.211 364.052 534.399 364.343 534.588 364.634L535.707 366.007C540.157 373.878 541.948 381.406 539.42 390.344C538.915 392.079 538.35 393.796 537.724 395.491C537.084 396.267 537.122 396.359 536.654 397.374L536.574 397.542C535.366 398.769 534.648 399.856 533.683 401.291C529.904 404.52 526.365 405.71 522.441 408.393C516.41 410.924 508.147 411.141 502.028 408.971C498.584 407.605 496.144 405.902 493.029 403.918C492.052 403.028 491.159 402.116 490.175 401.24L489.821 400.884C489.063 399.335 487.878 397.147 486.527 396.04L486.45 395.609C485.946 394.292 485.473 392.964 485.029 391.626C481.96 382.142 484.155 374.144 488.49 365.658C489.7 364.604 490.484 363.703 491.556 362.534C495.406 358.817 499.079 357.443 500.735 355.785C502.352 355.864 507.223 354.847 508.602 353.725L508.579 352.947Z"/><path fill="white" d="M508.579 352.947C510.867 352.163 513.594 352.437 516.058 352.479L515.802 353.118C514.637 354.661 510.059 354.47 508.579 352.947Z"/><path fill="white" d="M490.492 361.606C493.867 358.326 495.728 356.8 500.132 354.934L500.735 355.785C499.079 357.443 495.406 358.817 491.556 362.534L490.492 361.606Z"/><path fill="#1A3A5C" d="M684.594 342.712C696.26 346.189 733.204 371.223 745.57 377.429C749.072 379.187 748.671 445.762 746.906 451.312C743.392 455.341 710.988 474.873 704.172 478.962C702.9 479.726 698.905 480.348 697.255 480.449C694.015 480.678 690.763 480.213 687.717 479.085C683.515 477.568 650.701 459.127 650.049 457.795C650.555 455.589 651.564 452.938 649.586 451.51C651.899 450.034 650.351 446.521 650.158 443.851C676.621 454.104 703.109 449.172 728.468 438.931C725.726 435.825 722.948 434.14 719.449 432.239C700.129 421.747 674.101 423.8 656.484 436.826C654.419 438.353 652.315 440.139 650.147 441.525L649.294 442.061C649.089 439.671 646.29 434.74 644.696 432.957C646.206 431.335 654.399 428.055 656.88 426.419C676.897 413.214 684.939 388.229 682.536 365.349C661.79 377.679 648.719 399.506 642.34 422.282C641.769 424.321 641.218 427.034 639.887 428.591L638.995 429.37C637.078 428.364 631.577 425.483 630.337 424L630.525 423.679C628.35 422.325 627.582 422.421 627.029 419.765C626.13 415.379 626.891 410.978 626.762 406.557C626.282 392.554 626.662 376.231 639.785 367.623C644.879 364.281 651.361 360.33 656.92 357.653C665.705 353.421 675.756 346.114 684.594 342.712Z"/><path fill="white" d="M630.525 423.679C633.586 423.825 637.665 426.614 639.887 428.591L638.995 429.37C637.078 428.364 631.577 425.483 630.337 424L630.525 423.679Z"/><path fill="#9538A0" d="M411.726 357.236C405.635 357.801 399.726 357.741 394.049 355.097C387.762 352.147 382.945 346.766 380.708 340.191C378.442 333.147 379.117 325.486 382.581 318.947C385.829 312.893 391.448 308.462 398.092 306.716C405.283 304.853 413.205 305.771 419.572 309.711C425.436 313.344 429.578 319.198 431.056 325.936C432.916 334.679 430.178 341.805 425.548 348.904C439.468 371.384 461.129 387.996 486.45 395.609L486.527 396.04C487.878 397.147 489.063 399.335 489.821 400.884L490.175 401.24C490.347 403.075 490.841 403.249 492.023 404.915C488.448 407.61 432.21 439.355 431.705 439.345C431.46 439.34 431.222 439.264 430.98 439.224C430.558 438.186 430.285 437.634 429.777 436.653C429.273 435.521 428.662 434.591 427.864 433.632C427.291 433.045 426.707 432.469 426.112 431.904C425.861 431.674 425.609 431.443 425.358 431.213L424.774 430.663C424.26 430.142 423.749 429.637 423.21 429.141L422.552 428.517C425.341 420.264 428.432 416.276 429.477 406.491C431.659 386.05 423.441 372.61 411.726 357.236Z"/><path fill="white" d="M486.527 396.04C487.878 397.147 489.063 399.335 489.821 400.884C487.725 400.627 485.973 397.717 486.527 396.04Z"/><path fill="#9538A0" d="M594.978 583.058L594.912 584.155C594.753 584.056 603.517 593.663 603.686 593.917L603.551 594.487C602.996 598.571 599.403 604.399 598.226 608.944C592.453 631.238 600.349 645.913 612.567 663.935C621.853 663.608 627.933 663.974 635.542 670.818C640.444 675.226 643.342 682.639 643.436 689.228C643.533 696.054 640.893 702.634 636.106 707.501C615.428 728.567 577.626 703.785 597.239 672.545C594.684 667.661 591.769 662.013 588.356 657.72C577.007 643.446 558.532 631.08 540.137 629.159L537.924 624.254L536.797 622.146C536.328 621.076 536.247 620.961 535.349 620.215C534.783 619.395 534.384 618.821 533.766 618.045C534.712 616.313 541.31 612.996 543.241 611.898C559.481 602.66 575.507 593.02 591.882 584.021C593.005 583.404 593.753 583.252 594.978 583.058Z"/><path fill="white" d="M594.912 584.155C594.753 584.056 603.517 593.663 603.686 593.917L603.551 594.487C600.611 592.811 598.091 590.488 596.181 587.693C595.216 586.281 594.644 585.683 594.912 584.155Z"/><path fill="#9538A0" d="M598.295 349.645C582.601 327.875 598.847 300.861 624.149 306.418C630.376 307.794 635.782 311.628 639.138 317.05C647.163 329.754 643.617 346.458 630.382 354.298C625.031 357.468 619.612 357.668 613.595 357.375C609.839 363.76 605.49 369.62 601.967 376.184C591.911 394.921 593.185 409.241 602.83 427.594C601.98 428.758 600.116 430.089 598.967 431.256C597.664 432.643 597.363 433.04 596.291 434.641C595.736 435.336 595.201 436.047 594.686 436.773C594.184 437.727 593.751 438.585 593.288 439.563L592.413 439.84C586.214 437.359 534.56 405.928 533.579 403.776L534.435 402.193C535.733 401.02 537.061 399.939 536.638 398.148C537.415 397.663 537.924 397.259 538.511 396.556L539.158 395.808C567.218 388.405 583.786 374.251 598.295 349.645Z"/><path fill="#9538A0" d="M430.577 583.49C434.194 585.437 490.357 618.936 490.335 618.907C489.275 620.314 485.815 625.596 485.279 627.241C483.411 629.732 481.611 630.013 478.716 631.05C455.925 639.214 439.251 652.188 427.807 673.743C429.919 678.154 431.457 683.14 431.573 688.054C431.768 695.133 429.103 701.993 424.18 707.084C414.231 717.209 397.147 717.402 387.371 706.963C382.57 701.735 380.015 694.831 380.255 687.738C380.503 680.372 383.444 674.485 388.818 669.601C395.645 663.396 402.872 663.391 411.402 664.014C429.134 641.109 437.062 621.486 422.801 593.749C425.562 590.522 428.554 587.255 430.577 583.49Z"/><path fill="#9538A0" d="M700.481 508.616C701.858 495.093 713.485 484.954 727.07 485.432C740.655 485.909 751.542 496.839 751.966 510.426C752.39 524.012 742.205 535.6 728.677 536.923C715.148 538.247 702.911 528.853 700.694 515.442C700.321 513.186 700.249 510.891 700.481 508.616Z"/><path fill="#9538A0" d="M323.036 511.557C322.181 524.865 311.209 535.263 297.874 535.401C284.539 535.539 273.353 525.371 272.224 512.083C271.094 498.796 280.402 486.885 293.568 484.769C306.735 482.654 319.306 491.05 322.395 504.023C322.982 506.488 323.198 509.028 323.036 511.557Z"/><path fill="white" fill-opacity="0.51764709" d="M648.341 442.39L649.294 442.061C649.817 442.828 649.806 442.917 650.158 443.851C650.351 446.521 651.899 450.034 649.586 451.51C648.646 449.39 648.606 444.867 648.341 442.39Z"/><path fill="white" fill-opacity="0.72156864" d="M373.757 448.182L375.428 448.863C375.449 450.818 375.62 454.684 375.123 456.373C374.866 456.041 374.974 456.121 374.799 456.034C374.502 456.175 374.409 457.673 374.362 457.976C373.575 454.783 373.183 451.447 373.757 448.182Z"/><path fill="#F5FAFD" fill-opacity="0.98039216" d="M644.696 432.957C646.29 434.74 649.089 439.671 649.294 442.061L648.341 442.39C646.519 438.262 645.712 437.264 643.386 433.612L644.696 432.957Z"/><path fill="#F5FAFD" fill-opacity="0.11764706" d="M422.009 592.607C426.62 588.368 426.369 588.539 429.203 583.041L430.577 583.49C428.554 587.255 425.562 590.522 422.801 593.749C422.537 593.368 422.273 592.988 422.009 592.607Z"/><path fill="white" fill-opacity="0.047058824" d="M489.137 656.72C491.452 659.39 493.206 660.866 495.776 663.174L494.78 663.831C492.482 662.642 489.721 659.749 488.178 657.7C488.466 657.427 488.906 657.047 489.137 656.72Z"/><path fill="white" fill-opacity="0.56862748" d="M394.825 478.725C400.003 479.685 400.806 480.16 406.359 480.185C404.296 480.444 404.053 480.467 402.016 480.248C400.938 480.504 400.476 480.353 400.188 481.384C398.355 481.28 395.926 480.686 394.362 479.748C394.603 479.295 394.688 479.198 394.825 478.725Z"/><path fill="#F5FAFD" fill-opacity="0.074509807" d="M485.279 627.241C485.815 625.596 489.275 620.314 490.335 618.907L491.622 619.688C487.931 623.392 488.605 623.316 486.166 627.601L485.279 627.241Z"/><path fill="white" fill-opacity="0.88627452" d="M390.96 596.345C392.272 596.743 394.356 597.555 395.513 598.325L396.162 599.651L395.889 599.597C393.446 599.126 392.241 598.49 389.965 597.666L390.96 596.345Z"/><path fill="white" fill-opacity="0.078431375" d="M524.599 354.845C526.72 356.223 528.771 357.717 530.843 359.156L529.401 359.553C526.872 357.694 526.281 357.329 523.411 356.19L524.599 354.845Z"/><path fill="white" fill-opacity="0.027450981" d="M649.586 451.51C651.564 452.938 650.555 455.589 650.049 457.795L648.811 457.312C649.027 454.683 648.789 453.97 649.586 451.51Z"/><path fill="white" fill-opacity="0.38039216" d="M530.843 359.156C532.222 360.134 533.409 361.148 534.38 362.537L534.022 363.761C531.972 361.823 531.696 361.318 529.401 359.553L530.843 359.156Z"/><path fill="white" fill-opacity="0.77254903" d="M487.398 365.003C488.454 363.616 489.189 362.777 490.492 361.606L491.556 362.534C490.484 363.703 489.7 364.604 488.49 365.658L487.398 365.003Z"/><path fill="white" fill-opacity="0.80000001" d="M536.574 397.542L536.638 398.148C537.061 399.939 535.733 401.02 534.435 402.193L533.683 401.291C534.648 399.856 535.366 398.769 536.574 397.542Z"/><path fill="white" fill-opacity="0.45882353" d="M602.83 427.594L602.882 428.894C601.91 429.949 600.625 431.086 599.566 432.128L598.967 431.256C600.116 430.089 601.98 428.758 602.83 427.594Z"/><path fill="white" fill-opacity="0.14509805" d="M390.745 477.108C391.724 477.522 392.706 477.914 393.698 478.296L394.825 478.725C394.688 479.198 394.603 479.295 394.362 479.748C392.534 478.966 390.981 478.431 389.147 477.551C389.855 477.314 390.034 477.242 390.745 477.108Z"/><path fill="#F5FAFD" fill-opacity="0.78039217" d="M427.864 433.632C428.662 434.591 429.273 435.521 429.777 436.653L429.41 438.179C428.526 436.928 427.778 435.823 426.998 434.5L427.864 433.632Z"/><path fill="#F5FAFD" fill-opacity="0.30980393" d="M424.774 430.663L425.358 431.213C425.609 431.443 425.861 431.674 426.112 431.904C426.707 432.469 427.291 433.045 427.864 433.632L426.998 434.5C425.969 433.259 425.03 432.281 423.927 431.116L424.774 430.663Z"/><path fill="white" fill-opacity="0.68627453" d="M535.349 620.215C536.247 620.961 536.328 621.076 536.797 622.146L536.383 623.639C535.7 622.594 534.992 621.704 534.298 620.662L535.349 620.215Z"/><path fill="#F5FAFD" fill-opacity="0.13333334" d="M598.967 431.256L599.566 432.128L597.087 435.003L596.291 434.641C597.363 433.04 597.664 432.643 598.967 431.256Z"/><path fill="white" fill-opacity="0.054901961" d="M490.175 401.24C491.159 402.116 492.052 403.028 493.029 403.918L492.023 404.915C490.841 403.249 490.347 403.075 490.175 401.24Z"/><path fill="#F5FAFD" fill-opacity="0.34901962" d="M596.291 434.641L597.087 435.003C596.432 436.053 595.759 437.071 595.125 438.135L594.686 436.773C595.201 436.047 595.736 435.336 596.291 434.641Z"/><path fill="white" fill-opacity="0.035294119" d="M422.552 428.517L423.21 429.141C423.749 429.637 424.26 430.142 424.774 430.663L423.927 431.116C423.091 430.404 422.262 429.757 421.415 429.062L422.552 428.517Z"/><path fill="white" fill-opacity="0.082352944" d="M534.38 362.537C535.256 363.554 535.856 364.209 536.631 365.317L535.707 366.007L534.588 364.634C534.376 364.059 534.447 364.083 534.022 363.761L534.38 362.537Z"/><path fill="#F5FAFD" fill-opacity="0.33333334" d="M533.766 618.045C534.384 618.821 534.783 619.395 535.349 620.215L534.298 620.662C533.808 620.049 533.455 619.627 532.926 619.045L533.766 618.045Z"/><path fill="#F5FAFD" fill-opacity="0.015686275" d="M537.724 395.491C538.201 395.602 538.679 395.708 539.158 395.808L538.511 396.556C537.924 397.259 537.415 397.663 536.638 398.148L536.574 397.542L536.654 397.374C537.122 396.359 537.084 396.267 537.724 395.491Z"/><path fill="white" fill-opacity="0.035294119" d="M594.686 436.773L595.125 438.135L594.133 440.032L593.288 439.563C593.751 438.585 594.184 437.727 594.686 436.773Z"/><path fill="white" fill-opacity="0.082352944" d="M395.513 598.325L397.478 598.448L397.822 600.136C397.307 599.929 396.704 599.795 396.162 599.651L395.513 598.325Z"/><path fill="#F6F2F9" fill-opacity="0.44705883" d="M536.797 622.146L537.924 624.254L537.332 625.23C536.997 624.685 536.696 624.198 536.383 623.639L536.797 622.146Z"/><path fill="#F6F2F9" fill-opacity="0.17254902" d="M429.777 436.653C430.285 437.634 430.558 438.186 430.98 439.224L430.213 439.651C429.95 439.157 429.683 438.667 429.41 438.179L429.777 436.653Z"/><path fill="#F5FAFD" fill-opacity="0.42352942" d="M400.188 481.384C400.476 480.353 400.938 480.504 402.016 480.248L402.461 481.726L400.188 481.384Z"/></svg>